# xmcd CD database file
#
# Track frame offsets:
#	150
#	9019
#	15680
#	23366
#	32145
#	42121
#	50278
#	77925
#
# Disc length: 1988 seconds
#
# Revision: 2
# Processed by: cddbd v1.5.2PL0 Copyright (c) Steve Scherf et al.
# Submitted via: CDex 1.70beta2
#
DISCID=4907c208
DTITLE=The Peacocks - Gimme More
DYEAR=2008
DGENRE=Rockabilly
TTITLE0=Half mast flags
TTITLE1=Happened before
TTITLE2=Come on everybody
TTITLE3=Drink alone
TTITLE4=I´d rather be alone
TTITLE5=Can´t keep a good man down
TTITLE6=I am not gonna tell you
TTITLE7=Daten-CD
EXTD=YEAR: 2008
EXTT0=
EXTT1=
EXTT2=
EXTT3=
EXTT4=
EXTT5=
EXTT6=
EXTT7=
PLAYORDER=
